# xmcd
#
# Track frame offsets:
#	150
#	15922
#	28183
#	42729
#	60337
#	77731
#	91779
#	109786
#	123956
#	141045
#	154540
#
# Disc length: 2308 seconds
#
# Revision: 1
# Processed by: cddbd v1.4PL0 Copyright (c) Steve Scherf et al.
# Submitted via: audiograbber 1.81.03
#
DISCID=7d09020b
DTITLE=Steve Mitchell - Scattered Under the Sun
DYEAR=2003
DGENRE=Alt Country
TTITLE0=Fried Angel
TTITLE1=Flowers by the Freeway
TTITLE2=Early Morning Radio
TTITLE3=Dry River
TTITLE4=Long Flat Red
TTITLE5=Cam's Song
TTITLE6=Blue Highway
TTITLE7=Doubt
TTITLE8=And Then We'll Fall
TTITLE9=The Book
TTITLE10=How Good It's Gonna Feel
EXTD=
EXTT0=
EXTT1=
EXTT2=
EXTT3=
EXTT4=
EXTT5=
EXTT6=
EXTT7=
EXTT8=
EXTT9=
EXTT10=
PLAYORDER=
